<?xml version="1.0" encoding="utf-8" standalone="no"?>
<!DOCTYPE svg PUBLIC "-//W3C//DTD SVG 1.1//EN"
  "http://www.w3.org/Graphics/SVG/1.1/DTD/svg11.dtd">
<svg xmlns:xlink="http://www.w3.org/1999/xlink" width="2880pt" height="360pt" viewBox="0 0 2880 360" xmlns="http://www.w3.org/2000/svg" version="1.1">
 <metadata>
  <rdf:RDF xmlns:dc="http://purl.org/dc/elements/1.1/" xmlns:cc="http://creativecommons.org/ns#" xmlns:rdf="http://www.w3.org/1999/02/22-rdf-syntax-ns#">
   <cc:Work>
    <dc:type rdf:resource="http://purl.org/dc/dcmitype/StillImage"/>
    <dc:date>2025-09-12T11:41:52.955586</dc:date>
    <dc:format>image/svg+xml</dc:format>
    <dc:creator>
     <cc:Agent>
      <dc:title>Matplotlib v3.10.6, https://matplotlib.org/</dc:title>
     </cc:Agent>
    </dc:creator>
   </cc:Work>
  </rdf:RDF>
 </metadata>
 <defs>
  <style type="text/css">*{stroke-linejoin: round; stroke-linecap: butt}</style>
 </defs>
 <g id="figure_1">
  <g id="patch_1">
   <path d="M 0 360 
L 2880 360 
L 2880 0 
L 0 0 
z
" style="fill: #ffffff"/>
  </g>
  <g id="axes_1">
   <g id="patch_2">
    <path d="M 360 320.4 
L 2592 320.4 
L 2592 43.2 
L 360 43.2 
z
" style="fill: #ffffff"/>
   </g>
   <g id="matplotlib.axis_1">
    <g id="xtick_1">
     <g id="line2d_1">
      <defs>
       <path id="mce6e175923" d="M 0 0 
L 0 3.5 
" style="stroke: #000000; stroke-width: 0.8"/>
      </defs>
      <g>
       <use xlink:href="#mce6e175923" x="461.454545" y="320.4" style="stroke: #000000; stroke-width: 0.8"/>
      </g>
     </g>
     <g id="text_1">
      <!-- 0 -->
      <g transform="translate(458.273295 334.998438) scale(0.1 -0.1)">
       <defs>
        <path id="DejaVuSans-30" d="M 2034 4250 
Q 1547 4250 1301 3770 
Q 1056 3291 1056 2328 
Q 1056 1369 1301 889 
Q 1547 409 2034 409 
Q 2525 409 2770 889 
Q 3016 1369 3016 2328 
Q 3016 3291 2770 3770 
Q 2525 4250 2034 4250 
z
M 2034 4750 
Q 2819 4750 3233 4129 
Q 3647 3509 3647 2328 
Q 3647 1150 3233 529 
Q 2819 -91 2034 -91 
Q 1250 -91 836 529 
Q 422 1150 422 2328 
Q 422 3509 836 4129 
Q 1250 4750 2034 4750 
z
" transform="scale(0.015625)"/>
       </defs>
       <use xlink:href="#DejaVuSans-30"/>
      </g>
     </g>
    </g>
    <g id="xtick_2">
     <g id="line2d_2">
      <g>
       <use xlink:href="#mce6e175923" x="867.678952" y="320.4" style="stroke: #000000; stroke-width: 0.8"/>
      </g>
     </g>
     <g id="text_2">
      <!-- 200 -->
      <g transform="translate(858.135202 334.998438) scale(0.1 -0.1)">
       <defs>
        <path id="DejaVuSans-32" d="M 1228 531 
L 3431 531 
L 3431 0 
L 469 0 
L 469 531 
Q 828 903 1448 1529 
Q 2069 2156 2228 2338 
Q 2531 2678 2651 2914 
Q 2772 3150 2772 3378 
Q 2772 3750 2511 3984 
Q 2250 4219 1831 4219 
Q 1534 4219 1204 4116 
Q 875 4013 500 3803 
L 500 4441 
Q 881 4594 1212 4672 
Q 1544 4750 1819 4750 
Q 2544 4750 2975 4387 
Q 3406 4025 3406 3419 
Q 3406 3131 3298 2873 
Q 3191 2616 2906 2266 
Q 2828 2175 2409 1742 
Q 1991 1309 1228 531 
z
" transform="scale(0.015625)"/>
       </defs>
       <use xlink:href="#DejaVuSans-32"/>
       <use xlink:href="#DejaVuSans-30" transform="translate(63.623047 0)"/>
       <use xlink:href="#DejaVuSans-30" transform="translate(127.246094 0)"/>
      </g>
     </g>
    </g>
    <g id="xtick_3">
     <g id="line2d_3">
      <g>
       <use xlink:href="#mce6e175923" x="1273.903358" y="320.4" style="stroke: #000000; stroke-width: 0.8"/>
      </g>
     </g>
     <g id="text_3">
      <!-- 400 -->
      <g transform="translate(1264.359608 334.998438) scale(0.1 -0.1)">
       <defs>
        <path id="DejaVuSans-34" d="M 2419 4116 
L 825 1625 
L 2419 1625 
L 2419 4116 
z
M 2253 4666 
L 3047 4666 
L 3047 1625 
L 3713 1625 
L 3713 1100 
L 3047 1100 
L 3047 0 
L 2419 0 
L 2419 1100 
L 313 1100 
L 313 1709 
L 2253 4666 
z
" transform="scale(0.015625)"/>
       </defs>
       <use xlink:href="#DejaVuSans-34"/>
       <use xlink:href="#DejaVuSans-30" transform="translate(63.623047 0)"/>
       <use xlink:href="#DejaVuSans-30" transform="translate(127.246094 0)"/>
      </g>
     </g>
    </g>
    <g id="xtick_4">
     <g id="line2d_4">
      <g>
       <use xlink:href="#mce6e175923" x="1680.127764" y="320.4" style="stroke: #000000; stroke-width: 0.8"/>
      </g>
     </g>
     <g id="text_4">
      <!-- 600 -->
      <g transform="translate(1670.584014 334.998438) scale(0.1 -0.1)">
       <defs>
        <path id="DejaVuSans-36" d="M 2113 2584 
Q 1688 2584 1439 2293 
Q 1191 2003 1191 1497 
Q 1191 994 1439 701 
Q 1688 409 2113 409 
Q 2538 409 2786 701 
Q 3034 994 3034 1497 
Q 3034 2003 2786 2293 
Q 2538 2584 2113 2584 
z
M 3366 4563 
L 3366 3988 
Q 3128 4100 2886 4159 
Q 2644 4219 2406 4219 
Q 1781 4219 1451 3797 
Q 1122 3375 1075 2522 
Q 1259 2794 1537 2939 
Q 1816 3084 2150 3084 
Q 2853 3084 3261 2657 
Q 3669 2231 3669 1497 
Q 3669 778 3244 343 
Q 2819 -91 2113 -91 
Q 1303 -91 875 529 
Q 447 1150 447 2328 
Q 447 3434 972 4092 
Q 1497 4750 2381 4750 
Q 2619 4750 2861 4703 
Q 3103 4656 3366 4563 
z
" transform="scale(0.015625)"/>
       </defs>
       <use xlink:href="#DejaVuSans-36"/>
       <use xlink:href="#DejaVuSans-30" transform="translate(63.623047 0)"/>
       <use xlink:href="#DejaVuSans-30" transform="translate(127.246094 0)"/>
      </g>
     </g>
    </g>
    <g id="xtick_5">
     <g id="line2d_5">
      <g>
       <use xlink:href="#mce6e175923" x="2086.35217" y="320.4" style="stroke: #000000; stroke-width: 0.8"/>
      </g>
     </g>
     <g id="text_5">
      <!-- 800 -->
      <g transform="translate(2076.80842 334.998438) scale(0.1 -0.1)">
       <defs>
        <path id="DejaVuSans-38" d="M 2034 2216 
Q 1584 2216 1326 1975 
Q 1069 1734 1069 1313 
Q 1069 891 1326 650 
Q 1584 409 2034 409 
Q 2484 409 2743 651 
Q 3003 894 3003 1313 
Q 3003 1734 2745 1975 
Q 2488 2216 2034 2216 
z
M 1403 2484 
Q 997 2584 770 2862 
Q 544 3141 544 3541 
Q 544 4100 942 4425 
Q 1341 4750 2034 4750 
Q 2731 4750 3128 4425 
Q 3525 4100 3525 3541 
Q 3525 3141 3298 2862 
Q 3072 2584 2669 2484 
Q 3125 2378 3379 2068 
Q 3634 1759 3634 1313 
Q 3634 634 3220 271 
Q 2806 -91 2034 -91 
Q 1263 -91 848 271 
Q 434 634 434 1313 
Q 434 1759 690 2068 
Q 947 2378 1403 2484 
z
M 1172 3481 
Q 1172 3119 1398 2916 
Q 1625 2713 2034 2713 
Q 2441 2713 2670 2916 
Q 2900 3119 2900 3481 
Q 2900 3844 2670 4047 
Q 2441 4250 2034 4250 
Q 1625 4250 1398 4047 
Q 1172 3844 1172 3481 
z
" transform="scale(0.015625)"/>
       </defs>
       <use xlink:href="#DejaVuSans-38"/>
       <use xlink:href="#DejaVuSans-30" transform="translate(63.623047 0)"/>
       <use xlink:href="#DejaVuSans-30" transform="translate(127.246094 0)"/>
      </g>
     </g>
    </g>
    <g id="xtick_6">
     <g id="line2d_6">
      <g>
       <use xlink:href="#mce6e175923" x="2492.576577" y="320.4" style="stroke: #000000; stroke-width: 0.8"/>
      </g>
     </g>
     <g id="text_6">
      <!-- 1000 -->
      <g transform="translate(2479.851577 334.998438) scale(0.1 -0.1)">
       <defs>
        <path id="DejaVuSans-31" d="M 794 531 
L 1825 531 
L 1825 4091 
L 703 3866 
L 703 4441 
L 1819 4666 
L 2450 4666 
L 2450 531 
L 3481 531 
L 3481 0 
L 794 0 
L 794 531 
z
" transform="scale(0.015625)"/>
       </defs>
       <use xlink:href="#DejaVuSans-31"/>
       <use xlink:href="#DejaVuSans-30" transform="translate(63.623047 0)"/>
       <use xlink:href="#DejaVuSans-30" transform="translate(127.246094 0)"/>
       <use xlink:href="#DejaVuSans-30" transform="translate(190.869141 0)"/>
      </g>
     </g>
    </g>
    <g id="text_7">
     <!-- start number -->
     <g transform="translate(1443.252344 348.676562) scale(0.1 -0.1)">
      <defs>
       <path id="DejaVuSans-73" d="M 2834 3397 
L 2834 2853 
Q 2591 2978 2328 3040 
Q 2066 3103 1784 3103 
Q 1356 3103 1142 2972 
Q 928 2841 928 2578 
Q 928 2378 1081 2264 
Q 1234 2150 1697 2047 
L 1894 2003 
Q 2506 1872 2764 1633 
Q 3022 1394 3022 966 
Q 3022 478 2636 193 
Q 2250 -91 1575 -91 
Q 1294 -91 989 -36 
Q 684 19 347 128 
L 347 722 
Q 666 556 975 473 
Q 1284 391 1588 391 
Q 1994 391 2212 530 
Q 2431 669 2431 922 
Q 2431 1156 2273 1281 
Q 2116 1406 1581 1522 
L 1381 1569 
Q 847 1681 609 1914 
Q 372 2147 372 2553 
Q 372 3047 722 3315 
Q 1072 3584 1716 3584 
Q 2034 3584 2315 3537 
Q 2597 3491 2834 3397 
z
" transform="scale(0.015625)"/>
       <path id="DejaVuSans-74" d="M 1172 4494 
L 1172 3500 
L 2356 3500 
L 2356 3053 
L 1172 3053 
L 1172 1153 
Q 1172 725 1289 603 
Q 1406 481 1766 481 
L 2356 481 
L 2356 0 
L 1766 0 
Q 1100 0 847 248 
Q 594 497 594 1153 
L 594 3053 
L 172 3053 
L 172 3500 
L 594 3500 
L 594 4494 
L 1172 4494 
z
" transform="scale(0.015625)"/>
       <path id="DejaVuSans-61" d="M 2194 1759 
Q 1497 1759 1228 1600 
Q 959 1441 959 1056 
Q 959 750 1161 570 
Q 1363 391 1709 391 
Q 2188 391 2477 730 
Q 2766 1069 2766 1631 
L 2766 1759 
L 2194 1759 
z
M 3341 1997 
L 3341 0 
L 2766 0 
L 2766 531 
Q 2569 213 2275 61 
Q 1981 -91 1556 -91 
Q 1019 -91 701 211 
Q 384 513 384 1019 
Q 384 1609 779 1909 
Q 1175 2209 1959 2209 
L 2766 2209 
L 2766 2266 
Q 2766 2663 2505 2880 
Q 2244 3097 1772 3097 
Q 1472 3097 1187 3025 
Q 903 2953 641 2809 
L 641 3341 
Q 956 3463 1253 3523 
Q 1550 3584 1831 3584 
Q 2591 3584 2966 3190 
Q 3341 2797 3341 1997 
z
" transform="scale(0.015625)"/>
       <path id="DejaVuSans-72" d="M 2631 2963 
Q 2534 3019 2420 3045 
Q 2306 3072 2169 3072 
Q 1681 3072 1420 2755 
Q 1159 2438 1159 1844 
L 1159 0 
L 581 0 
L 581 3500 
L 1159 3500 
L 1159 2956 
Q 1341 3275 1631 3429 
Q 1922 3584 2338 3584 
Q 2397 3584 2469 3576 
Q 2541 3569 2628 3553 
L 2631 2963 
z
" transform="scale(0.015625)"/>
       <path id="DejaVuSans-20" transform="scale(0.015625)"/>
       <path id="DejaVuSans-6e" d="M 3513 2113 
L 3513 0 
L 2938 0 
L 2938 2094 
Q 2938 2591 2744 2837 
Q 2550 3084 2163 3084 
Q 1697 3084 1428 2787 
Q 1159 2491 1159 1978 
L 1159 0 
L 581 0 
L 581 3500 
L 1159 3500 
L 1159 2956 
Q 1366 3272 1645 3428 
Q 1925 3584 2291 3584 
Q 2894 3584 3203 3211 
Q 3513 2838 3513 2113 
z
" transform="scale(0.015625)"/>
       <path id="DejaVuSans-75" d="M 544 1381 
L 544 3500 
L 1119 3500 
L 1119 1403 
Q 1119 906 1312 657 
Q 1506 409 1894 409 
Q 2359 409 2629 706 
Q 2900 1003 2900 1516 
L 2900 3500 
L 3475 3500 
L 3475 0 
L 2900 0 
L 2900 538 
Q 2691 219 2414 64 
Q 2138 -91 1772 -91 
Q 1169 -91 856 284 
Q 544 659 544 1381 
z
M 1991 3584 
L 1991 3584 
z
" transform="scale(0.015625)"/>
       <path id="DejaVuSans-6d" d="M 3328 2828 
Q 3544 3216 3844 3400 
Q 4144 3584 4550 3584 
Q 5097 3584 5394 3201 
Q 5691 2819 5691 2113 
L 5691 0 
L 5113 0 
L 5113 2094 
Q 5113 2597 4934 2840 
Q 4756 3084 4391 3084 
Q 3944 3084 3684 2787 
Q 3425 2491 3425 1978 
L 3425 0 
L 2847 0 
L 2847 2094 
Q 2847 2600 2669 2842 
Q 2491 3084 2119 3084 
Q 1678 3084 1418 2786 
Q 1159 2488 1159 1978 
L 1159 0 
L 581 0 
L 581 3500 
L 1159 3500 
L 1159 2956 
Q 1356 3278 1631 3431 
Q 1906 3584 2284 3584 
Q 2666 3584 2933 3390 
Q 3200 3197 3328 2828 
z
" transform="scale(0.015625)"/>
       <path id="DejaVuSans-62" d="M 3116 1747 
Q 3116 2381 2855 2742 
Q 2594 3103 2138 3103 
Q 1681 3103 1420 2742 
Q 1159 2381 1159 1747 
Q 1159 1113 1420 752 
Q 1681 391 2138 391 
Q 2594 391 2855 752 
Q 3116 1113 3116 1747 
z
M 1159 2969 
Q 1341 3281 1617 3432 
Q 1894 3584 2278 3584 
Q 2916 3584 3314 3078 
Q 3713 2572 3713 1747 
Q 3713 922 3314 415 
Q 2916 -91 2278 -91 
Q 1894 -91 1617 61 
Q 1341 213 1159 525 
L 1159 0 
L 581 0 
L 581 4863 
L 1159 4863 
L 1159 2969 
z
" transform="scale(0.015625)"/>
       <path id="DejaVuSans-65" d="M 3597 1894 
L 3597 1613 
L 953 1613 
Q 991 1019 1311 708 
Q 1631 397 2203 397 
Q 2534 397 2845 478 
Q 3156 559 3463 722 
L 3463 178 
Q 3153 47 2828 -22 
Q 2503 -91 2169 -91 
Q 1331 -91 842 396 
Q 353 884 353 1716 
Q 353 2575 817 3079 
Q 1281 3584 2069 3584 
Q 2775 3584 3186 3129 
Q 3597 2675 3597 1894 
z
M 3022 2063 
Q 3016 2534 2758 2815 
Q 2500 3097 2075 3097 
Q 1594 3097 1305 2825 
Q 1016 2553 972 2059 
L 3022 2063 
z
" transform="scale(0.015625)"/>
      </defs>
      <use xlink:href="#DejaVuSans-73"/>
      <use xlink:href="#DejaVuSans-74" transform="translate(52.099609 0)"/>
      <use xlink:href="#DejaVuSans-61" transform="translate(91.308594 0)"/>
      <use xlink:href="#DejaVuSans-72" transform="translate(152.587891 0)"/>
      <use xlink:href="#DejaVuSans-74" transform="translate(193.701172 0)"/>
      <use xlink:href="#DejaVuSans-20" transform="translate(232.910156 0)"/>
      <use xlink:href="#DejaVuSans-6e" transform="translate(264.697266 0)"/>
      <use xlink:href="#DejaVuSans-75" transform="translate(328.076172 0)"/>
      <use xlink:href="#DejaVuSans-6d" transform="translate(391.455078 0)"/>
      <use xlink:href="#DejaVuSans-62" transform="translate(488.867188 0)"/>
      <use xlink:href="#DejaVuSans-65" transform="translate(552.34375 0)"/>
      <use xlink:href="#DejaVuSans-72" transform="translate(613.867188 0)"/>
     </g>
    </g>
   </g>
   <g id="matplotlib.axis_2">
    <g id="ytick_1">
     <g id="line2d_7">
      <defs>
       <path id="md287795122" d="M 0 0 
L -3.5 0 
" style="stroke: #000000; stroke-width: 0.8"/>
      </defs>
      <g>
       <use xlink:href="#md287795122" x="360" y="310.647458" style="stroke: #000000; stroke-width: 0.8"/>
      </g>
     </g>
     <g id="text_8">
      <!-- 0 -->
      <g transform="translate(346.6375 314.446676) scale(0.1 -0.1)">
       <use xlink:href="#DejaVuSans-30"/>
      </g>
     </g>
    </g>
    <g id="ytick_2">
     <g id="line2d_8">
      <g>
       <use xlink:href="#md287795122" x="360" y="275.054237" style="stroke: #000000; stroke-width: 0.8"/>
      </g>
     </g>
     <g id="text_9">
      <!-- 25 -->
      <g transform="translate(340.275 278.853456) scale(0.1 -0.1)">
       <defs>
        <path id="DejaVuSans-35" d="M 691 4666 
L 3169 4666 
L 3169 4134 
L 1269 4134 
L 1269 2991 
Q 1406 3038 1543 3061 
Q 1681 3084 1819 3084 
Q 2600 3084 3056 2656 
Q 3513 2228 3513 1497 
Q 3513 744 3044 326 
Q 2575 -91 1722 -91 
Q 1428 -91 1123 -41 
Q 819 9 494 109 
L 494 744 
Q 775 591 1075 516 
Q 1375 441 1709 441 
Q 2250 441 2565 725 
Q 2881 1009 2881 1497 
Q 2881 1984 2565 2268 
Q 2250 2553 1709 2553 
Q 1456 2553 1204 2497 
Q 953 2441 691 2322 
L 691 4666 
z
" transform="scale(0.015625)"/>
       </defs>
       <use xlink:href="#DejaVuSans-32"/>
       <use xlink:href="#DejaVuSans-35" transform="translate(63.623047 0)"/>
      </g>
     </g>
    </g>
    <g id="ytick_3">
     <g id="line2d_9">
      <g>
       <use xlink:href="#md287795122" x="360" y="239.461017" style="stroke: #000000; stroke-width: 0.8"/>
      </g>
     </g>
     <g id="text_10">
      <!-- 50 -->
      <g transform="translate(340.275 243.260236) scale(0.1 -0.1)">
       <use xlink:href="#DejaVuSans-35"/>
       <use xlink:href="#DejaVuSans-30" transform="translate(63.623047 0)"/>
      </g>
     </g>
    </g>
    <g id="ytick_4">
     <g id="line2d_10">
      <g>
       <use xlink:href="#md287795122" x="360" y="203.867797" style="stroke: #000000; stroke-width: 0.8"/>
      </g>
     </g>
     <g id="text_11">
      <!-- 75 -->
      <g transform="translate(340.275 207.667015) scale(0.1 -0.1)">
       <defs>
        <path id="DejaVuSans-37" d="M 525 4666 
L 3525 4666 
L 3525 4397 
L 1831 0 
L 1172 0 
L 2766 4134 
L 525 4134 
L 525 4666 
z
" transform="scale(0.015625)"/>
       </defs>
       <use xlink:href="#DejaVuSans-37"/>
       <use xlink:href="#DejaVuSans-35" transform="translate(63.623047 0)"/>
      </g>
     </g>
    </g>
    <g id="ytick_5">
     <g id="line2d_11">
      <g>
       <use xlink:href="#md287795122" x="360" y="168.274576" style="stroke: #000000; stroke-width: 0.8"/>
      </g>
     </g>
     <g id="text_12">
      <!-- 100 -->
      <g transform="translate(333.9125 172.073795) scale(0.1 -0.1)">
       <use xlink:href="#DejaVuSans-31"/>
       <use xlink:href="#DejaVuSans-30" transform="translate(63.623047 0)"/>
       <use xlink:href="#DejaVuSans-30" transform="translate(127.246094 0)"/>
      </g>
     </g>
    </g>
    <g id="ytick_6">
     <g id="line2d_12">
      <g>
       <use xlink:href="#md287795122" x="360" y="132.681356" style="stroke: #000000; stroke-width: 0.8"/>
      </g>
     </g>
     <g id="text_13">
      <!-- 125 -->
      <g transform="translate(333.9125 136.480575) scale(0.1 -0.1)">
       <use xlink:href="#DejaVuSans-31"/>
       <use xlink:href="#DejaVuSans-32" transform="translate(63.623047 0)"/>
       <use xlink:href="#DejaVuSans-35" transform="translate(127.246094 0)"/>
      </g>
     </g>
    </g>
    <g id="ytick_7">
     <g id="line2d_13">
      <g>
       <use xlink:href="#md287795122" x="360" y="97.088136" style="stroke: #000000; stroke-width: 0.8"/>
      </g>
     </g>
     <g id="text_14">
      <!-- 150 -->
      <g transform="translate(333.9125 100.887354) scale(0.1 -0.1)">
       <use xlink:href="#DejaVuSans-31"/>
       <use xlink:href="#DejaVuSans-35" transform="translate(63.623047 0)"/>
       <use xlink:href="#DejaVuSans-30" transform="translate(127.246094 0)"/>
      </g>
     </g>
    </g>
    <g id="ytick_8">
     <g id="line2d_14">
      <g>
       <use xlink:href="#md287795122" x="360" y="61.494915" style="stroke: #000000; stroke-width: 0.8"/>
      </g>
     </g>
     <g id="text_15">
      <!-- 175 -->
      <g transform="translate(333.9125 65.294134) scale(0.1 -0.1)">
       <use xlink:href="#DejaVuSans-31"/>
       <use xlink:href="#DejaVuSans-37" transform="translate(63.623047 0)"/>
       <use xlink:href="#DejaVuSans-35" transform="translate(127.246094 0)"/>
      </g>
     </g>
    </g>
    <g id="text_16">
     <!-- Number of calculations -->
     <g transform="translate(327.832813 239.639062) rotate(-90) scale(0.1 -0.1)">
      <defs>
       <path id="DejaVuSans-4e" d="M 628 4666 
L 1478 4666 
L 3547 763 
L 3547 4666 
L 4159 4666 
L 4159 0 
L 3309 0 
L 1241 3903 
L 1241 0 
L 628 0 
L 628 4666 
z
" transform="scale(0.015625)"/>
       <path id="DejaVuSans-6f" d="M 1959 3097 
Q 1497 3097 1228 2736 
Q 959 2375 959 1747 
Q 959 1119 1226 758 
Q 1494 397 1959 397 
Q 2419 397 2687 759 
Q 2956 1122 2956 1747 
Q 2956 2369 2687 2733 
Q 2419 3097 1959 3097 
z
M 1959 3584 
Q 2709 3584 3137 3096 
Q 3566 2609 3566 1747 
Q 3566 888 3137 398 
Q 2709 -91 1959 -91 
Q 1206 -91 779 398 
Q 353 888 353 1747 
Q 353 2609 779 3096 
Q 1206 3584 1959 3584 
z
" transform="scale(0.015625)"/>
       <path id="DejaVuSans-66" d="M 2375 4863 
L 2375 4384 
L 1825 4384 
Q 1516 4384 1395 4259 
Q 1275 4134 1275 3809 
L 1275 3500 
L 2222 3500 
L 2222 3053 
L 1275 3053 
L 1275 0 
L 697 0 
L 697 3053 
L 147 3053 
L 147 3500 
L 697 3500 
L 697 3744 
Q 697 4328 969 4595 
Q 1241 4863 1831 4863 
L 2375 4863 
z
" transform="scale(0.015625)"/>
       <path id="DejaVuSans-63" d="M 3122 3366 
L 3122 2828 
Q 2878 2963 2633 3030 
Q 2388 3097 2138 3097 
Q 1578 3097 1268 2742 
Q 959 2388 959 1747 
Q 959 1106 1268 751 
Q 1578 397 2138 397 
Q 2388 397 2633 464 
Q 2878 531 3122 666 
L 3122 134 
Q 2881 22 2623 -34 
Q 2366 -91 2075 -91 
Q 1284 -91 818 406 
Q 353 903 353 1747 
Q 353 2603 823 3093 
Q 1294 3584 2113 3584 
Q 2378 3584 2631 3529 
Q 2884 3475 3122 3366 
z
" transform="scale(0.015625)"/>
       <path id="DejaVuSans-6c" d="M 603 4863 
L 1178 4863 
L 1178 0 
L 603 0 
L 603 4863 
z
" transform="scale(0.015625)"/>
       <path id="DejaVuSans-69" d="M 603 3500 
L 1178 3500 
L 1178 0 
L 603 0 
L 603 3500 
z
M 603 4863 
L 1178 4863 
L 1178 4134 
L 603 4134 
L 603 4863 
z
" transform="scale(0.015625)"/>
      </defs>
      <use xlink:href="#DejaVuSans-4e"/>
      <use xlink:href="#DejaVuSans-75" transform="translate(74.804688 0)"/>
      <use xlink:href="#DejaVuSans-6d" transform="translate(138.183594 0)"/>
      <use xlink:href="#DejaVuSans-62" transform="translate(235.595703 0)"/>
      <use xlink:href="#DejaVuSans-65" transform="translate(299.072266 0)"/>
      <use xlink:href="#DejaVuSans-72" transform="translate(360.595703 0)"/>
      <use xlink:href="#DejaVuSans-20" transform="translate(401.708984 0)"/>
      <use xlink:href="#DejaVuSans-6f" transform="translate(433.496094 0)"/>
      <use xlink:href="#DejaVuSans-66" transform="translate(494.677734 0)"/>
      <use xlink:href="#DejaVuSans-20" transform="translate(529.882812 0)"/>
      <use xlink:href="#DejaVuSans-63" transform="translate(561.669922 0)"/>
      <use xlink:href="#DejaVuSans-61" transform="translate(616.650391 0)"/>
      <use xlink:href="#DejaVuSans-6c" transform="translate(677.929688 0)"/>
      <use xlink:href="#DejaVuSans-63" transform="translate(705.712891 0)"/>
      <use xlink:href="#DejaVuSans-75" transform="translate(760.693359 0)"/>
      <use xlink:href="#DejaVuSans-6c" transform="translate(824.072266 0)"/>
      <use xlink:href="#DejaVuSans-61" transform="translate(851.855469 0)"/>
      <use xlink:href="#DejaVuSans-74" transform="translate(913.134766 0)"/>
      <use xlink:href="#DejaVuSans-69" transform="translate(952.34375 0)"/>
      <use xlink:href="#DejaVuSans-6f" transform="translate(980.126953 0)"/>
      <use xlink:href="#DejaVuSans-6e" transform="translate(1041.308594 0)"/>
      <use xlink:href="#DejaVuSans-73" transform="translate(1104.6875 0)"/>
     </g>
    </g>
   </g>
   <g id="line2d_15">
    <path d="M 461.454545 307.8 
L 463.485667 299.257627 
L 465.51679 306.376271 
L 469.579034 297.833898 
L 471.610156 286.444068 
L 473.641278 304.952542 
L 475.6724 282.172881 
L 477.703522 300.681356 
L 479.734644 289.291525 
L 481.765766 296.410169 
L 483.796888 296.410169 
L 485.82801 285.020339 
L 487.859132 285.020339 
L 489.890254 303.528814 
L 493.952498 280.749153 
L 495.98362 280.749153 
L 498.014742 299.257627 
L 500.045864 299.257627 
L 502.076986 287.867797 
L 504.108108 287.867797 
L 506.13923 294.986441 
L 508.170352 276.477966 
L 510.201474 294.986441 
L 512.232596 151.189831 
L 514.263718 283.59661 
L 518.325962 283.59661 
L 520.357084 158.308475 
L 522.388206 302.105085 
L 524.419328 272.20678 
L 526.45045 290.715254 
L 528.481572 290.715254 
L 530.512695 279.325424 
L 534.574939 279.325424 
L 536.606061 260.816949 
L 538.637183 297.833898 
L 540.668305 154.037288 
L 542.699427 297.833898 
L 544.730549 267.935593 
L 546.761671 286.444068 
L 550.823915 286.444068 
L 552.855037 161.155932 
L 554.886159 293.562712 
L 556.917281 275.054237 
L 560.979525 275.054237 
L 563.010647 293.562712 
L 565.041769 293.562712 
L 567.072891 149.766102 
L 569.104013 149.766102 
L 571.135135 282.172881 
L 573.166257 263.664407 
L 575.197379 282.172881 
L 577.228501 263.664407 
L 579.259623 282.172881 
L 581.290745 282.172881 
L 583.321867 156.884746 
L 585.352989 156.884746 
L 587.384111 300.681356 
L 589.415233 270.783051 
L 593.477477 270.783051 
L 595.5086 289.291525 
L 599.570844 289.291525 
L 601.601966 164.00339 
L 603.633088 277.901695 
L 605.66421 145.494915 
L 607.695332 277.901695 
L 609.726454 289.291525 
L 611.757576 277.901695 
L 613.788698 277.901695 
L 615.81982 259.39322 
L 617.850942 259.39322 
L 619.882064 296.410169 
L 621.913186 277.901695 
L 623.944308 152.613559 
L 625.97543 152.613559 
L 628.006552 296.410169 
L 630.037674 296.410169 
L 632.068796 266.511864 
L 634.099918 266.511864 
L 636.13104 285.020339 
L 638.162162 266.511864 
L 640.193284 285.020339 
L 642.224406 178.240678 
L 644.255528 285.020339 
L 646.28665 285.020339 
L 648.317772 159.732203 
L 650.348894 159.732203 
L 652.380016 292.138983 
L 654.411138 141.223729 
L 656.44226 273.630508 
L 664.566749 273.630508 
L 666.597871 185.359322 
L 668.628993 292.138983 
L 670.660115 255.122034 
L 672.691237 292.138983 
L 674.722359 166.850847 
L 676.753481 148.342373 
L 680.815725 148.342373 
L 682.846847 210.986441 
L 684.877969 280.749153 
L 686.909091 292.138983 
L 688.940213 262.240678 
L 690.971335 262.240678 
L 693.002457 280.749153 
L 695.033579 280.749153 
L 697.064701 262.240678 
L 699.095823 262.240678 
L 701.126945 280.749153 
L 703.158067 173.969492 
L 705.189189 280.749153 
L 707.220311 243.732203 
L 709.251433 155.461017 
L 713.313677 155.461017 
L 715.344799 243.732203 
L 717.375921 299.257627 
L 719.407043 136.952542 
L 721.438165 269.359322 
L 729.562654 269.359322 
L 731.593776 250.850847 
L 733.624898 287.867797 
L 735.65602 181.088136 
L 737.687142 287.867797 
L 739.718264 250.850847 
L 741.749386 287.867797 
L 743.780508 287.867797 
L 745.81163 162.579661 
L 747.842752 162.579661 
L 749.873874 276.477966 
L 751.904996 144.071186 
L 755.96724 144.071186 
L 757.998362 276.477966 
L 760.029484 276.477966 
L 762.060606 287.867797 
L 764.091728 287.867797 
L 766.12285 276.477966 
L 768.153972 257.969492 
L 770.185094 276.477966 
L 772.216216 188.20678 
L 774.247338 257.969492 
L 778.309582 257.969492 
L 780.340704 232.342373 
L 782.371826 294.986441 
L 784.402948 169.698305 
L 786.43407 276.477966 
L 788.465192 276.477966 
L 790.496314 151.189831 
L 794.558559 151.189831 
L 796.589681 213.833898 
L 798.620803 294.986441 
L 800.651925 239.461017 
L 802.683047 294.986441 
L 804.714169 132.681356 
L 806.745291 265.088136 
L 810.807535 265.088136 
L 812.838657 195.325424 
L 814.869779 283.59661 
L 816.900901 265.088136 
L 820.963145 265.088136 
L 822.994267 283.59661 
L 825.025389 283.59661 
L 827.056511 176.816949 
L 829.087633 176.816949 
L 831.118755 283.59661 
L 833.149877 246.579661 
L 835.180999 283.59661 
L 837.212121 246.579661 
L 839.243243 158.308475 
L 843.305487 158.308475 
L 845.336609 246.579661 
L 847.367731 290.715254 
L 849.398853 139.8 
L 853.461097 139.8 
L 855.492219 272.20678 
L 859.554464 272.20678 
L 861.585586 139.8 
L 863.616708 272.20678 
L 865.64783 283.59661 
L 867.678952 272.20678 
L 869.710074 253.698305 
L 871.741196 272.20678 
L 873.772318 272.20678 
L 875.80344 183.935593 
L 877.834562 183.935593 
L 879.865684 290.715254 
L 881.896806 253.698305 
L 885.95905 253.698305 
L 887.990172 290.715254 
L 890.021294 290.715254 
L 892.052416 165.427119 
L 894.083538 165.427119 
L 896.11466 146.918644 
L 898.145782 272.20678 
L 900.176904 146.918644 
L 902.208026 235.189831 
L 904.239148 146.918644 
L 906.27027 146.918644 
L 908.301392 209.562712 
L 910.332514 209.562712 
L 912.363636 279.325424 
L 914.394758 235.189831 
L 916.42588 290.715254 
L 918.457002 290.715254 
L 920.488124 260.816949 
L 924.550369 260.816949 
L 926.581491 128.410169 
L 928.612613 279.325424 
L 930.643735 191.054237 
L 932.674857 279.325424 
L 934.705979 128.410169 
L 936.737101 260.816949 
L 940.799345 260.816949 
L 942.830467 235.189831 
L 944.861589 279.325424 
L 946.892711 279.325424 
L 948.923833 172.545763 
L 950.954955 172.545763 
L 952.986077 279.325424 
L 955.017199 279.325424 
L 957.048321 242.308475 
L 959.079443 242.308475 
L 961.110565 154.037288 
L 963.141687 242.308475 
L 965.172809 154.037288 
L 967.203931 216.681356 
L 969.235053 154.037288 
L 971.266175 154.037288 
L 973.297297 242.308475 
L 975.328419 242.308475 
L 977.359541 297.833898 
L 979.390663 135.528814 
L 983.452907 135.528814 
L 985.484029 267.935593 
L 989.546274 267.935593 
L 991.577396 198.172881 
L 993.608518 267.935593 
L 995.63964 135.528814 
L 997.670762 267.935593 
L 999.701884 279.325424 
L 1001.733006 267.935593 
L 1003.764128 267.935593 
L 1005.79525 249.427119 
L 1007.826372 249.427119 
L 1009.857494 286.444068 
L 1011.888616 267.935593 
L 1013.919738 179.664407 
L 1015.95086 179.664407 
L 1017.981982 286.444068 
L 1020.013104 286.444068 
L 1022.044226 249.427119 
L 1024.075348 249.427119 
L 1026.10647 286.444068 
L 1028.137592 249.427119 
L 1030.168714 286.444068 
L 1034.230958 161.155932 
L 1038.293202 161.155932 
L 1040.324324 249.427119 
L 1042.355446 275.054237 
L 1044.386568 267.935593 
L 1046.41769 142.647458 
L 1054.542179 142.647458 
L 1056.573301 230.918644 
L 1058.604423 275.054237 
L 1060.635545 205.291525 
L 1062.666667 275.054237 
L 1064.697789 142.647458 
L 1066.728911 286.444068 
L 1070.791155 286.444068 
L 1072.822277 249.427119 
L 1074.853399 275.054237 
L 1076.884521 256.545763 
L 1080.946765 256.545763 
L 1082.977887 275.054237 
L 1085.009009 275.054237 
L 1087.040131 186.783051 
L 1089.071253 186.783051 
L 1091.102375 256.545763 
L 1093.133497 124.138983 
L 1095.164619 256.545763 
L 1101.257985 256.545763 
L 1103.289107 230.918644 
L 1105.320229 230.918644 
L 1107.351351 293.562712 
L 1109.382473 275.054237 
L 1111.413595 168.274576 
L 1113.444717 168.274576 
L 1115.475839 275.054237 
L 1119.538084 275.054237 
L 1121.569206 105.630508 
L 1123.600328 149.766102 
L 1125.63145 238.037288 
L 1127.662572 149.766102 
L 1129.693694 275.054237 
L 1131.724816 149.766102 
L 1133.755938 149.766102 
L 1135.78706 212.410169 
L 1137.818182 212.410169 
L 1139.849304 293.562712 
L 1141.880426 149.766102 
L 1143.911548 238.037288 
L 1145.94267 238.037288 
L 1147.973792 293.562712 
L 1150.004914 293.562712 
L 1152.036036 131.257627 
L 1154.067158 131.257627 
L 1156.09828 263.664407 
L 1158.129402 131.257627 
L 1160.160524 263.664407 
L 1162.191646 131.257627 
L 1164.222768 263.664407 
L 1166.25389 263.664407 
L 1168.285012 193.901695 
L 1170.316134 193.901695 
L 1172.347256 282.172881 
L 1174.378378 131.257627 
L 1176.4095 263.664407 
L 1184.533989 263.664407 
L 1186.565111 238.037288 
L 1188.596233 282.172881 
L 1190.627355 245.155932 
L 1192.658477 282.172881 
L 1194.689599 245.155932 
L 1196.720721 175.39322 
L 1200.782965 175.39322 
L 1202.814087 245.155932 
L 1204.845209 282.172881 
L 1206.876331 282.172881 
L 1208.907453 245.155932 
L 1210.938575 245.155932 
L 1212.969697 282.172881 
L 1215.000819 282.172881 
L 1217.031941 245.155932 
L 1219.063063 245.155932 
L 1221.094185 156.884746 
L 1223.125307 219.528814 
L 1225.156429 156.884746 
L 1227.187551 226.647458 
L 1229.218673 156.884746 
L 1231.249795 156.884746 
L 1233.280917 245.155932 
L 1235.312039 245.155932 
L 1237.343161 289.291525 
L 1239.374283 263.664407 
L 1241.405405 138.376271 
L 1251.561016 138.376271 
L 1253.592138 270.783051 
L 1255.62326 226.647458 
L 1257.654382 270.783051 
L 1259.685504 201.020339 
L 1261.716626 270.783051 
L 1263.747748 270.783051 
L 1265.77887 138.376271 
L 1267.809992 138.376271 
L 1269.841114 270.783051 
L 1271.872236 282.172881 
L 1275.93448 282.172881 
L 1277.965602 270.783051 
L 1279.996724 270.783051 
L 1282.027846 252.274576 
L 1284.058968 252.274576 
L 1286.09009 270.783051 
L 1288.121212 252.274576 
L 1290.152334 270.783051 
L 1292.183456 119.867797 
L 1294.214578 182.511864 
L 1298.276822 182.511864 
L 1300.307944 119.867797 
L 1302.339066 289.291525 
L 1304.370188 119.867797 
L 1306.40131 252.274576 
L 1314.525799 252.274576 
L 1316.556921 263.664407 
L 1318.588043 289.291525 
L 1320.619165 226.647458 
L 1322.650287 289.291525 
L 1324.681409 233.766102 
L 1326.712531 164.00339 
L 1330.774775 164.00339 
L 1332.805897 252.274576 
L 1334.837019 145.494915 
L 1336.868141 270.783051 
L 1340.930385 270.783051 
L 1342.961507 145.494915 
L 1344.992629 145.494915 
L 1347.023751 233.766102 
L 1349.054873 233.766102 
L 1351.085995 145.494915 
L 1353.117117 270.783051 
L 1355.148239 145.494915 
L 1357.179361 233.766102 
L 1359.210483 208.138983 
L 1363.272727 208.138983 
L 1365.303849 171.122034 
L 1367.334971 277.901695 
L 1369.366093 145.494915 
L 1371.397215 233.766102 
L 1373.428337 233.766102 
L 1375.459459 289.291525 
L 1379.521704 289.291525 
L 1381.552826 252.274576 
L 1383.583948 259.39322 
L 1385.61507 126.986441 
L 1387.646192 259.39322 
L 1389.677314 126.986441 
L 1391.708436 259.39322 
L 1393.739558 259.39322 
L 1395.77068 126.986441 
L 1397.801802 126.986441 
L 1399.832924 277.901695 
L 1401.864046 259.39322 
L 1403.895168 189.630508 
L 1405.92629 189.630508 
L 1407.957412 277.901695 
L 1409.988534 277.901695 
L 1412.019656 126.986441 
L 1414.050778 126.986441 
L 1416.0819 259.39322 
L 1420.144144 259.39322 
L 1422.175266 270.783051 
L 1424.206388 259.39322 
L 1426.23751 259.39322 
L 1428.268632 233.766102 
L 1430.299754 233.766102 
L 1432.330876 277.901695 
L 1434.361998 240.884746 
L 1436.39312 277.901695 
L 1438.424242 277.901695 
L 1440.455364 171.122034 
L 1444.517609 171.122034 
L 1446.548731 108.477966 
L 1448.579853 277.901695 
L 1450.610975 240.884746 
L 1452.642097 277.901695 
L 1454.673219 108.477966 
L 1456.704341 240.884746 
L 1460.766585 240.884746 
L 1462.797707 171.122034 
L 1464.828829 152.613559 
L 1466.859951 277.901695 
L 1468.891073 240.884746 
L 1470.922195 240.884746 
L 1472.953317 152.613559 
L 1474.984439 152.613559 
L 1477.015561 215.257627 
L 1479.046683 215.257627 
L 1481.077805 152.613559 
L 1483.108927 222.376271 
L 1485.140049 152.613559 
L 1487.171171 259.39322 
L 1489.202293 240.884746 
L 1493.264537 240.884746 
L 1495.295659 222.376271 
L 1497.326781 296.410169 
L 1499.357903 259.39322 
L 1501.389025 134.105085 
L 1509.513514 134.105085 
L 1511.544636 222.376271 
L 1513.575758 266.511864 
L 1515.60688 134.105085 
L 1517.638002 266.511864 
L 1519.669124 134.105085 
L 1521.700246 266.511864 
L 1523.731368 266.511864 
L 1525.76249 196.749153 
L 1527.793612 196.749153 
L 1529.824734 266.511864 
L 1531.855856 266.511864 
L 1533.886978 134.105085 
L 1535.9181 134.105085 
L 1537.949222 266.511864 
L 1539.980344 266.511864 
L 1542.011466 277.901695 
L 1544.042588 277.901695 
L 1546.07371 266.511864 
L 1548.104832 277.901695 
L 1550.135954 266.511864 
L 1552.167076 240.884746 
L 1554.198198 248.00339 
L 1558.260442 248.00339 
L 1560.291564 115.59661 
L 1562.322686 285.020339 
L 1564.353808 248.00339 
L 1566.38493 266.511864 
L 1568.416052 266.511864 
L 1570.447174 178.240678 
L 1574.509419 178.240678 
L 1576.540541 248.00339 
L 1578.571663 285.020339 
L 1580.602785 115.59661 
L 1582.633907 285.020339 
L 1586.696151 248.00339 
L 1590.758395 248.00339 
L 1592.789517 185.359322 
L 1594.820639 285.020339 
L 1596.851761 248.00339 
L 1600.914005 248.00339 
L 1602.945127 285.020339 
L 1604.976249 285.020339 
L 1607.007371 222.376271 
L 1609.038493 222.376271 
L 1611.069615 159.732203 
L 1613.100737 229.494915 
L 1615.131859 159.732203 
L 1617.162981 266.511864 
L 1619.194103 159.732203 
L 1621.225225 159.732203 
L 1623.256347 248.00339 
L 1625.287469 248.00339 
L 1627.318591 273.630508 
L 1629.349713 266.511864 
L 1633.411957 266.511864 
L 1635.443079 141.223729 
L 1639.505324 141.223729 
L 1641.536446 266.511864 
L 1643.567568 141.223729 
L 1645.59869 229.494915 
L 1647.629812 141.223729 
L 1653.723178 141.223729 
L 1655.7543 229.494915 
L 1657.785422 229.494915 
L 1659.816544 273.630508 
L 1661.847666 203.867797 
L 1665.90991 203.867797 
L 1667.941032 273.630508 
L 1669.972154 273.630508 
L 1672.003276 141.223729 
L 1674.034398 141.223729 
L 1676.06552 285.020339 
L 1678.096642 229.494915 
L 1680.127764 285.020339 
L 1682.158886 210.986441 
L 1684.190008 285.020339 
L 1686.22113 285.020339 
L 1688.252252 248.00339 
L 1690.283374 248.00339 
L 1692.314496 273.630508 
L 1694.345618 122.715254 
L 1696.37674 255.122034 
L 1704.501229 255.122034 
L 1706.532351 210.986441 
L 1708.563473 273.630508 
L 1710.594595 122.715254 
L 1712.625717 273.630508 
L 1714.656839 122.715254 
L 1716.687961 185.359322 
L 1720.750205 185.359322 
L 1722.781327 122.715254 
L 1724.812449 255.122034 
L 1726.843571 273.630508 
L 1728.874693 122.715254 
L 1730.905815 122.715254 
L 1732.936937 255.122034 
L 1741.061425 255.122034 
L 1743.092547 266.511864 
L 1745.123669 255.122034 
L 1747.154791 266.511864 
L 1749.185913 229.494915 
L 1753.248157 229.494915 
L 1755.279279 122.715254 
L 1757.310401 292.138983 
L 1759.341523 236.613559 
L 1761.372645 273.630508 
L 1763.403767 273.630508 
L 1765.434889 166.850847 
L 1769.497133 166.850847 
L 1771.528256 255.122034 
L 1773.559378 273.630508 
L 1775.5905 104.20678 
L 1777.621622 273.630508 
L 1779.652744 166.850847 
L 1781.683866 273.630508 
L 1783.714988 273.630508 
L 1785.74611 104.20678 
L 1787.777232 104.20678 
L 1789.808354 148.342373 
L 1791.839476 236.613559 
L 1795.90172 236.613559 
L 1797.932842 148.342373 
L 1799.963964 148.342373 
L 1801.995086 273.630508 
L 1804.026208 273.630508 
L 1806.05733 148.342373 
L 1808.088452 236.613559 
L 1810.119574 148.342373 
L 1812.150696 104.20678 
L 1814.181818 210.986441 
L 1818.244062 210.986441 
L 1820.275184 173.969492 
L 1822.306306 292.138983 
L 1824.337428 218.105085 
L 1826.36855 148.342373 
L 1828.399672 148.342373 
L 1830.430794 236.613559 
L 1834.493038 236.613559 
L 1836.524161 218.105085 
L 1838.555283 292.138983 
L 1840.586405 218.105085 
L 1842.617527 292.138983 
L 1844.648649 255.122034 
L 1846.679771 129.833898 
L 1850.742015 129.833898 
L 1852.773137 255.122034 
L 1854.804259 262.240678 
L 1856.835381 129.833898 
L 1860.897625 129.833898 
L 1862.928747 262.240678 
L 1864.959869 262.240678 
L 1866.990991 129.833898 
L 1869.022113 129.833898 
L 1871.053235 262.240678 
L 1873.084357 129.833898 
L 1875.115479 262.240678 
L 1877.146601 218.105085 
L 1879.177723 192.477966 
L 1883.239967 192.477966 
L 1885.271089 67.189831 
L 1887.302211 280.749153 
L 1889.333333 262.240678 
L 1891.364455 129.833898 
L 1893.395577 129.833898 
L 1895.426699 262.240678 
L 1899.488943 262.240678 
L 1901.520066 218.105085 
L 1903.551188 262.240678 
L 1905.58231 273.630508 
L 1907.613432 262.240678 
L 1909.644554 273.630508 
L 1911.675676 262.240678 
L 1913.706798 262.240678 
L 1915.73792 236.613559 
L 1917.769042 236.613559 
L 1919.800164 280.749153 
L 1921.831286 243.732203 
L 1925.89353 243.732203 
L 1927.924652 280.749153 
L 1929.955774 280.749153 
L 1931.986896 243.732203 
L 1934.018018 243.732203 
L 1936.04914 173.969492 
L 1938.080262 262.240678 
L 1940.111384 173.969492 
L 1942.142506 111.325424 
L 1944.173628 173.969492 
L 1946.20475 173.969492 
L 1948.235872 243.732203 
L 1950.266994 243.732203 
L 1952.298116 280.749153 
L 1954.329238 111.325424 
L 1956.36036 280.749153 
L 1958.391482 280.749153 
L 1960.422604 243.732203 
L 1964.484848 243.732203 
L 1966.515971 173.969492 
L 1968.547093 280.749153 
L 1970.578215 181.088136 
L 1972.609337 280.749153 
L 1974.640459 243.732203 
L 1980.733825 243.732203 
L 1982.764947 111.325424 
L 1984.796069 155.461017 
L 1986.827191 280.749153 
L 1988.858313 218.105085 
L 1990.889435 218.105085 
L 1992.920557 155.461017 
L 1994.951679 155.461017 
L 1996.982801 225.223729 
L 1999.013923 225.223729 
L 2001.045045 155.461017 
L 2003.076167 262.240678 
L 2005.107289 155.461017 
L 2007.138411 92.816949 
L 2009.169533 243.732203 
L 2013.231777 243.732203 
L 2015.262899 225.223729 
L 2017.294021 287.867797 
L 2019.325143 262.240678 
L 2023.387387 262.240678 
L 2025.418509 136.952542 
L 2029.480753 136.952542 
L 2031.511876 92.816949 
L 2033.542998 136.952542 
L 2035.57412 262.240678 
L 2037.605242 136.952542 
L 2039.636364 225.223729 
L 2041.667486 136.952542 
L 2047.760852 136.952542 
L 2049.791974 269.359322 
L 2051.823096 136.952542 
L 2053.854218 225.223729 
L 2055.88534 225.223729 
L 2057.916462 269.359322 
L 2059.947584 269.359322 
L 2061.978706 199.59661 
L 2064.009828 199.59661 
L 2066.04095 269.359322 
L 2068.072072 199.59661 
L 2070.103194 269.359322 
L 2072.134316 162.579661 
L 2074.165438 136.952542 
L 2078.227682 136.952542 
L 2080.258804 206.715254 
L 2082.289926 269.359322 
L 2084.321048 225.223729 
L 2086.35217 280.749153 
L 2094.476658 280.749153 
L 2096.507781 206.715254 
L 2098.538903 269.359322 
L 2100.570025 243.732203 
L 2102.601147 269.359322 
L 2104.632269 118.444068 
L 2106.663391 250.850847 
L 2110.725635 250.850847 
L 2112.756757 118.444068 
L 2114.787879 269.359322 
L 2116.819001 250.850847 
L 2120.881245 250.850847 
L 2122.912367 269.359322 
L 2124.943489 269.359322 
L 2126.974611 118.444068 
L 2129.005733 118.444068 
L 2131.036855 181.088136 
L 2133.067977 118.444068 
L 2135.099099 181.088136 
L 2137.130221 250.850847 
L 2139.161343 181.088136 
L 2141.192465 181.088136 
L 2143.223587 118.444068 
L 2145.254709 118.444068 
L 2147.285831 287.867797 
L 2149.316953 269.359322 
L 2151.348075 118.444068 
L 2153.379197 118.444068 
L 2155.410319 250.850847 
L 2159.472563 250.850847 
L 2161.503686 188.20678 
L 2163.534808 250.850847 
L 2173.690418 250.850847 
L 2175.72154 262.240678 
L 2177.752662 262.240678 
L 2179.783784 287.867797 
L 2181.814906 225.223729 
L 2185.87715 225.223729 
L 2187.908272 287.867797 
L 2189.939394 287.867797 
L 2191.970516 232.342373 
L 2194.001638 232.342373 
L 2196.03276 162.579661 
L 2198.063882 269.359322 
L 2200.095004 162.579661 
L 2202.126126 99.935593 
L 2204.157248 162.579661 
L 2206.18837 162.579661 
L 2208.219492 250.850847 
L 2210.250614 250.850847 
L 2212.281736 144.071186 
L 2214.312858 99.935593 
L 2216.34398 269.359322 
L 2224.468468 269.359322 
L 2226.49959 55.8 
L 2228.530713 144.071186 
L 2230.561835 99.935593 
L 2232.592957 144.071186 
L 2234.624079 269.359322 
L 2236.655201 232.342373 
L 2240.717445 232.342373 
L 2242.748567 99.935593 
L 2244.779689 144.071186 
L 2246.810811 144.071186 
L 2248.841933 269.359322 
L 2250.873055 269.359322 
L 2252.904177 144.071186 
L 2254.935299 144.071186 
L 2256.966421 232.342373 
L 2258.997543 232.342373 
L 2261.028665 206.715254 
L 2263.059787 99.935593 
L 2265.090909 206.715254 
L 2267.122031 243.732203 
L 2269.153153 206.715254 
L 2271.184275 206.715254 
L 2273.215397 169.698305 
L 2275.246519 169.698305 
L 2277.277641 276.477966 
L 2279.308763 213.833898 
L 2281.339885 144.071186 
L 2283.371007 144.071186 
L 2285.402129 232.342373 
L 2289.464373 232.342373 
L 2291.495495 144.071186 
L 2293.526618 287.867797 
L 2295.55774 213.833898 
L 2297.588862 287.867797 
L 2299.619984 232.342373 
L 2301.651106 287.867797 
L 2303.682228 287.867797 
L 2305.71335 250.850847 
L 2307.744472 250.850847 
L 2309.775594 257.969492 
L 2311.806716 125.562712 
L 2315.86896 125.562712 
L 2317.900082 257.969492 
L 2319.931204 257.969492 
L 2321.962326 125.562712 
L 2323.993448 125.562712 
L 2326.02457 257.969492 
L 2328.055692 125.562712 
L 2330.086814 257.969492 
L 2332.117936 213.833898 
L 2334.149058 125.562712 
L 2338.211302 125.562712 
L 2340.242424 144.071186 
L 2342.273546 276.477966 
L 2344.304668 125.562712 
L 2346.33579 257.969492 
L 2348.366912 257.969492 
L 2350.398034 188.20678 
L 2354.460278 188.20678 
L 2356.4914 125.562712 
L 2358.522523 276.477966 
L 2360.553645 62.918644 
L 2362.584767 276.477966 
L 2364.615889 188.20678 
L 2366.647011 125.562712 
L 2370.709255 125.562712 
L 2372.740377 257.969492 
L 2384.927109 257.969492 
L 2386.958231 269.359322 
L 2388.989353 269.359322 
L 2391.020475 257.969492 
L 2393.051597 269.359322 
L 2395.082719 257.969492 
L 2397.113841 269.359322 
L 2399.144963 232.342373 
L 2403.207207 232.342373 
L 2405.238329 125.562712 
L 2407.269451 276.477966 
L 2409.300573 239.461017 
L 2413.362817 239.461017 
L 2415.393939 276.477966 
L 2419.456183 276.477966 
L 2421.487305 107.054237 
L 2423.518428 169.698305 
L 2425.54955 239.461017 
L 2427.580672 169.698305 
L 2429.611794 257.969492 
L 2431.642916 169.698305 
L 2433.674038 169.698305 
L 2435.70516 107.054237 
L 2437.736282 107.054237 
L 2439.767404 276.477966 
L 2441.798526 169.698305 
L 2443.829648 239.461017 
L 2445.86077 239.461017 
L 2447.891892 276.477966 
L 2449.923014 276.477966 
L 2451.954136 107.054237 
L 2453.985258 107.054237 
L 2456.01638 239.461017 
L 2458.047502 276.477966 
L 2460.078624 239.461017 
L 2462.109746 257.969492 
L 2464.140868 239.461017 
L 2466.17199 239.461017 
L 2468.203112 169.698305 
L 2470.234234 169.698305 
L 2472.265356 151.189831 
L 2474.296478 176.816949 
L 2476.3276 276.477966 
L 2478.358722 276.477966 
L 2480.389844 239.461017 
L 2486.48321 239.461017 
L 2488.514333 151.189831 
L 2490.545455 107.054237 
L 2490.545455 107.054237 
" clip-path="url(#pee92d4f42c)" style="fill: none; stroke: #0074d3; stroke-opacity: 0.8; stroke-width: 0.9; stroke-linecap: square"/>
   </g>
   <g id="patch_3">
    <path d="M 360 320.4 
L 360 43.2 
" style="fill: none; stroke: #000000; stroke-width: 0.8; stroke-linejoin: miter; stroke-linecap: square"/>
   </g>
   <g id="patch_4">
    <path d="M 2592 320.4 
L 2592 43.2 
" style="fill: none; stroke: #000000; stroke-width: 0.8; stroke-linejoin: miter; stroke-linecap: square"/>
   </g>
   <g id="patch_5">
    <path d="M 360 320.4 
L 2592 320.4 
" style="fill: none; stroke: #000000; stroke-width: 0.8; stroke-linejoin: miter; stroke-linecap: square"/>
   </g>
   <g id="patch_6">
    <path d="M 360 43.2 
L 2592 43.2 
" style="fill: none; stroke: #000000; stroke-width: 0.8; stroke-linejoin: miter; stroke-linecap: square"/>
   </g>
  </g>
 </g>
 <defs>
  <clipPath id="pee92d4f42c">
   <rect x="360" y="43.2" width="2232" height="277.2"/>
  </clipPath>
 </defs>
</svg>
